<svg width="142" height="20" viewBox="0 0 142 20" fill="none" xmlns="http://www.w3.org/2000/svg">
<path d="M48.4995 8.47579C48.3822 11.5097 48.7528 14.5291 48.7591 17.5588C48.7612 18.1744 48.6251 18.4152 48.0263 18.5325C46.7972 18.7732 45.5932 19.1627 44.3558 19.3449C43.5978 19.4558 42.8608 19.4914 42.151 19.8558C41.4454 20.218 41.2067 19.8704 41.1773 19.1208C41.0475 15.7812 40.8633 12.4457 40.6999 9.10812C40.5994 6.94938 40.4989 4.78855 40.3984 2.62772C40.6099 2.43718 40.8549 2.31993 41.1459 2.32411C43.3507 2.34924 45.5534 2.37227 47.7583 2.40996C47.9195 2.41205 48.0807 2.51675 48.2419 2.57328C48.3257 4.53939 48.4136 6.50759 48.4995 8.47579Z" fill="white"/>
<path d="M7.46863 17.0521C6.78605 17.3348 6.11183 17.1463 5.41877 17.0626C3.86934 16.8783 2.31362 16.7338 0.755815 16.6396C0.14651 16.604 -0.0209965 16.3674 0.00203568 15.8063C0.106727 13.1681 0.366362 10.5403 0.747439 7.93557C1.03011 6.00506 1.00707 4.06199 1.23321 2.13148C1.33371 1.27719 1.72945 1.22485 2.32619 1.38607C4.23576 1.90325 6.12021 2.52093 8.04444 2.96901C8.85684 3.15745 8.70609 3.8212 9.0076 4.25881C8.65374 5.74124 8.2957 7.22367 7.95859 8.71029C7.92509 8.86314 7.59217 9.18769 8.11144 9.19397C8.13238 9.34891 8.15122 9.50385 8.17216 9.6588C8.21823 12.1505 7.60683 14.5793 7.46863 17.0521Z" fill="#FF993A"/>
<path d="M128.524 4.17718C128.656 4.25884 128.787 4.3405 128.919 4.42216C130.326 6.31289 131.48 8.36484 132.718 10.3624C132.889 10.6387 132.937 11.0638 133.429 10.9549C133.467 11.0805 133.524 11.2732 133.679 11.1224C134.21 10.6073 134.736 10.0692 134.267 9.23378C134.238 9.19609 134.24 9.16259 134.28 9.13328C134.336 9.04952 134.395 8.96368 134.451 8.87992H134.428C135.276 8.95321 135.337 8.25178 135.488 7.72622C135.978 6.02813 136.828 4.52476 137.845 3.10305C138.911 2.70522 139.975 2.30739 141.248 1.83209C140.484 3.64535 139.814 5.29947 139.091 6.93057C137.515 10.4901 135.917 14.0412 134.317 17.5903C133.884 18.5555 133.744 18.589 133.117 17.7285C132.529 16.9202 132.05 16.0304 131.518 15.1803C129.453 11.8783 127.378 8.5826 125.324 5.27435C124.711 4.28606 124.751 4.24418 125.9 4.21278C126.7 4.19184 127.498 4.17299 128.297 4.15415C128.36 4.27559 128.438 4.25884 128.524 4.17718Z" fill="white"/>
<path d="M122.028 12.8812C122.307 14.3678 121.867 15.844 121.963 17.3327C121.995 17.8038 121.58 17.9336 121.147 17.9169C116.377 17.7431 111.609 17.5714 106.84 17.4102C106.191 17.3892 105.91 17.1359 105.958 16.4533C106.046 15.2472 105.774 14.0244 106.122 12.8289C107.734 12.9692 109.346 12.9419 110.96 12.8561C111.115 12.8561 111.268 12.8582 111.423 12.8582C112.317 12.9566 113.211 12.9503 114.103 12.8582C114.256 12.8561 114.409 12.8561 114.564 12.854C116.501 12.9315 118.435 12.944 120.37 12.8268C120.535 12.8142 120.699 12.8037 120.864 12.7912C120.975 12.787 121.084 12.7807 121.195 12.7765C121.471 12.8121 121.75 12.8456 122.028 12.8812Z" fill="#F05458"/>
<path d="M106.172 7.04366C105.885 6.19985 105.988 5.32672 105.971 4.45987C105.961 3.93013 106.239 3.73122 106.75 3.71866C109.939 3.637 113.098 3.16379 116.289 3.04235C117.812 2.98372 119.336 2.89159 120.862 2.87903C122.271 2.86647 122.24 2.87694 122.295 4.23583C122.343 5.45654 122.184 6.6584 122.073 7.86444C121.729 7.86863 121.384 7.87491 121.038 7.8791C116.101 7.26561 111.132 7.21954 106.172 7.04366Z" fill="#FF993A"/>
<path d="M6.49911 17.584C6.08872 15.1405 6.14944 12.6363 5.55688 10.2158C5.99031 10.0525 6.20597 10.4252 6.43629 10.6346C8.7772 12.7619 11.3882 14.5752 13.6118 16.8428C14.3049 17.5505 15.199 18.0614 15.9632 18.8906C14.4033 18.8864 12.8455 18.8843 11.2856 18.878C10.1403 18.8738 8.98867 18.7021 7.84963 18.9345C6.69593 19.1732 6.6729 18.3106 6.49911 17.584Z" fill="white"/>
<path d="M58.4513 17.6238C60.2583 15.2389 62.2307 12.9943 64.203 10.7476C64.7118 10.1697 64.8752 10.5906 65.0678 10.98C65.9451 12.7514 66.8203 14.5228 67.6872 16.2984C67.9301 16.7967 68.1394 17.3139 68.5247 17.7285C68.0683 18.1556 67.4841 18.0383 66.9543 18.0509C64.4229 18.1158 61.8915 18.1451 59.36 18.1703C58.9727 18.1724 58.4701 18.275 58.4513 17.6238Z" fill="#4E5FED"/>
<path d="M134.277 9.13327C134.24 9.16258 134.235 9.19608 134.265 9.23377C133.869 9.75095 133.591 10.3247 133.429 10.9549C132.937 11.0638 132.887 10.6387 132.717 10.3623C131.48 8.36274 130.326 6.31079 128.919 4.42215C128.586 3.07791 128.62 3.11141 129.941 2.77849C131.011 2.50839 132.049 2.52095 133.132 2.61099C133.865 2.67171 134.629 2.33251 135.366 2.38067C135.969 2.42045 136.941 2.04147 137.014 3.22657C135.934 5.01052 135.284 6.99337 134.428 8.87992H134.451C134.392 8.96367 134.334 9.04742 134.277 9.13327Z" fill="#4E5FED"/>
<path d="M40.3982 2.6278C40.4987 4.78863 40.5992 6.94737 40.6997 9.1082C39.4895 9.21917 38.2771 9.31968 37.0669 9.44531C36.4555 9.50812 36.1707 9.26733 36.1184 8.64965C35.9802 6.95784 36.0053 5.26393 36.0053 3.56793C36.0053 2.89999 36.2985 2.75761 36.8701 2.71364C38.0468 2.61942 39.2194 2.51264 40.3982 2.6278Z" fill="#ED8C22"/>
<path d="M8.11139 9.19402C7.59212 9.18774 7.92295 8.8611 7.95854 8.71034C8.29565 7.22372 8.6537 5.74129 9.00755 4.25886C9.263 2.82458 9.53101 2.63195 10.8962 2.86227C12.1818 3.08003 13.4674 3.28523 14.9729 3.53021C12.6843 5.64497 10.1696 7.14834 8.11139 9.19402Z" fill="white"/>
<path d="M48.4993 8.47583C48.4134 6.50763 48.3255 4.54152 48.2396 2.57332C50.8234 2.33881 50.8234 2.33881 51.2757 4.86606C51.4285 5.71825 51.5898 6.56835 51.7175 7.42263C51.7908 7.91468 51.6798 8.34392 51.0768 8.40045C50.2204 8.48211 49.3661 8.70615 48.4993 8.47583Z" fill="#F05458"/>
<path d="M134.426 8.87783C135.282 6.99129 135.931 5.00843 137.012 3.22449C137.288 3.18261 137.567 3.14283 137.843 3.10095C136.825 4.52476 135.975 6.02813 135.485 7.72413C135.335 8.24968 135.274 8.95111 134.426 8.87783Z" fill="#4E5FED"/>
<path d="M28.296 1.60599C25.6012 1.35682 22.9232 0.910837 20.3269 2.30323C18.5387 3.26221 17.2552 4.70276 16.0743 6.23335C15.1195 7.4729 14.4683 9.10818 15.1321 10.5571C16.2753 13.0551 17.5211 15.5697 20.0379 17.115C21.4471 17.9797 21.558 18.0216 22.1108 16.4366C23.0991 13.5995 24.3533 10.8838 25.7834 8.24553C25.7918 8.20784 25.8022 8.17015 25.8148 8.13455C25.8651 8.05289 25.9153 7.97123 25.9677 7.88957C26.1352 7.54828 26.3006 7.20489 26.4681 6.8615C26.466 6.80288 26.4869 6.75262 26.5309 6.71284C26.7068 6.58721 26.8094 6.4197 26.8282 6.20195C26.8219 6.14332 26.845 6.09516 26.8973 6.06375C27.0125 5.34348 27.1988 4.66298 27.8668 4.23375C27.9003 4.16256 27.9338 4.09137 27.9652 4.01808C28.1222 3.73123 28.2771 3.44647 28.4342 3.15961C28.3839 2.8225 28.5954 2.56287 28.6938 2.26973C28.8194 1.89703 28.7022 1.64368 28.296 1.60599Z" fill="#4E5FED"/>
<path d="M27.963 4.0244C27.963 4.0244 27.9672 4.01807 27.9672 4.01596L27.963 4.0244Z" fill="#A3CAEC"/>
<path d="M27.0668 6.11609C26.9642 5.82295 27.0982 5.6722 27.3725 5.60519C27.3117 5.79992 27.4081 6.08887 27.0668 6.11609Z" fill="#FDFDFC"/>
<path d="M133.429 10.9549C133.593 10.3247 133.871 9.75097 134.265 9.2338C134.734 10.0692 134.208 10.6073 133.676 11.1224C133.521 11.2732 133.467 11.0826 133.429 10.9549Z" fill="#4E5FED"/>
<path d="M134.277 9.13327C134.334 9.04951 134.393 8.96367 134.449 8.87991C134.393 8.96367 134.334 9.04742 134.277 9.13327Z" fill="#1B0F15"/>
<path d="M114.564 12.854C116.498 12.6069 118.435 12.6467 120.372 12.8268C118.435 12.944 116.498 12.9315 114.564 12.854Z" fill="#20151B"/>
<path d="M111.423 12.8582C112.317 12.6216 113.211 12.6216 114.105 12.8582C113.209 12.9504 112.315 12.9566 111.423 12.8582Z" fill="#20151B"/>
<path d="M120.864 12.7933C120.975 12.7891 121.084 12.7828 121.195 12.7787C121.084 12.7828 120.973 12.787 120.864 12.7933Z" fill="#20151B"/>
<path d="M73.0475 17.0061C72.1849 14.1564 71.3222 11.3088 70.1916 8.54911C69.4064 5.68894 68.3469 2.92089 67.3774 0C65.0219 2.49794 62.7668 4.89119 60.5118 7.28444C57.2496 10.5676 53.9602 13.8256 50.9869 17.383C50.9932 17.5044 50.9995 17.6238 51.0037 17.7431C51.6591 17.7578 52.3186 17.8017 52.974 17.7808C54.7977 17.7222 56.6319 17.9441 58.4473 17.6259C60.2542 15.241 62.2266 12.9964 64.199 10.7497C64.7078 10.1718 64.8711 10.5927 65.0638 10.9821C65.9411 12.7535 66.8163 14.5249 67.6831 16.3005C67.926 16.7988 68.1354 17.316 68.5207 17.7306C69.8021 17.7075 71.0835 17.6929 72.3649 17.6552C72.7628 17.6405 73.2695 17.7389 73.0475 17.0061ZM64.779 6.17052C64.7978 6.12655 64.8334 6.0763 64.8439 6.03651C64.8334 6.07839 64.7978 6.12864 64.779 6.17052ZM64.802 7.55663C64.8272 7.49801 64.8523 7.44147 64.8774 7.38285C64.8523 7.44147 64.8272 7.5001 64.802 7.55663Z" fill="white"/>
<path d="M28.0342 4.27986C28.0342 4.27775 28.0363 4.27775 28.0363 4.27564C28.0363 4.27353 28.0384 4.27353 28.0384 4.27142C28.0363 4.27353 28.0342 4.27986 28.0342 4.27986Z" fill="#1B0F15"/>
<path d="M34.4056 6.51811C32.8813 4.64413 30.9299 3.58256 28.5052 3.41714C28.3482 3.704 28.1912 3.99085 28.0362 4.27771C28.0027 4.3489 27.9713 4.42009 27.9378 4.49128C27.8436 4.97286 27.7368 5.45025 27.4437 5.86064C27.3829 6.05537 27.4793 6.34432 27.138 6.37154L27.1694 6.39248C27.0751 7.3368 26.5894 8.1492 26.2753 9.01814C25.1949 12.0123 23.8904 14.9206 22.9796 17.9776C24.6044 17.8939 26.246 18.1242 27.8499 17.6384C28.2623 17.5128 28.7753 17.4207 28.9198 18.0802C29.3532 18.0258 29.7573 17.9023 30.0756 17.5798C32.3893 16.4408 33.811 14.5333 34.6862 12.1756C35.396 10.2556 35.283 8.36487 34.4056 6.51811Z" fill="white"/>
<path d="M102.65 18.5744C102.443 17.6238 102.323 16.6523 102.193 15.6849C101.752 12.4039 101.32 9.12283 100.889 5.8418C100.82 5.31206 100.799 4.81164 100.03 4.79698C98.4286 4.76557 96.8268 4.6881 95.2272 4.5855C94.5069 4.53944 94.3247 4.80745 94.4085 5.48794C94.5425 6.59349 94.6011 7.7095 94.6911 8.82132C94.9654 12.1882 95.2544 15.5551 95.5077 18.9241C95.5622 19.6443 95.7632 19.9919 96.5735 19.904C97.365 19.8181 98.1732 19.8851 98.973 19.8851C98.973 19.8558 98.973 19.8244 98.973 19.7951C99.9132 19.749 100.853 19.6632 101.791 19.6653C102.6 19.6632 102.819 19.3533 102.65 18.5744Z" fill="white"/>
<path d="M122.7 8.41722C122.675 8.02149 122.393 7.92308 122.07 7.86655C121.727 7.87073 121.381 7.87702 121.036 7.8812C116.099 7.26352 111.13 7.21955 106.17 7.04367C106.019 7.09602 105.868 7.14836 105.717 7.20071C105.28 7.45406 105.569 7.81001 105.611 8.11152C105.83 9.67771 106.059 11.2439 106.121 12.8289C107.734 12.9692 109.346 12.942 110.96 12.8561C111.115 12.8561 111.268 12.8582 111.423 12.8582C112.317 12.6216 113.211 12.6216 114.105 12.8582C114.258 12.8561 114.411 12.8561 114.566 12.854C116.501 12.607 118.437 12.6468 120.374 12.8268C120.537 12.8143 120.703 12.8038 120.868 12.7912C120.979 12.787 121.088 12.7808 121.199 12.7766C121.478 12.8101 121.756 12.8457 122.032 12.8813C122.12 12.8268 122.21 12.7745 122.298 12.72C122.738 12.8415 122.966 12.6761 122.941 12.2175C122.864 10.9508 122.78 9.68399 122.7 8.41722ZM110.983 8.10315C110.96 8.10734 110.935 8.10734 110.912 8.10943C110.935 8.10943 110.96 8.10734 110.983 8.10315ZM110.91 8.10943C110.862 8.11152 110.812 8.10734 110.763 8.10943C110.814 8.10734 110.862 8.10943 110.91 8.10943ZM110.468 8.28741C110.527 8.13456 110.64 8.11152 110.763 8.10943C110.642 8.11152 110.527 8.13456 110.468 8.28741C110.464 8.29788 110.468 8.31253 110.477 8.33138C110.468 8.31253 110.464 8.29578 110.468 8.28741ZM110.627 8.47376C110.619 8.47166 110.611 8.46957 110.602 8.46538C110.611 8.46957 110.619 8.47376 110.627 8.47376C110.661 8.48004 110.692 8.48004 110.722 8.48004C110.692 8.48213 110.661 8.48004 110.627 8.47376ZM110.835 8.44235C110.841 8.43816 110.847 8.43607 110.853 8.43188C110.847 8.43607 110.841 8.43816 110.835 8.44235ZM110.757 8.47166C110.77 8.46957 110.782 8.46747 110.793 8.46329C110.784 8.46747 110.77 8.46957 110.757 8.47166ZM110.897 8.38372C110.895 8.38791 110.891 8.39 110.889 8.3921C110.891 8.39 110.893 8.38791 110.897 8.38372Z" fill="white"/>
<path d="M82.0092 15.955C81.3266 16.2377 80.6524 16.0492 79.9593 15.9655C78.4099 15.7812 76.8541 15.6367 75.2963 15.5425C74.687 15.5069 74.5195 15.2703 74.5426 14.7092C74.6473 12.0709 74.9069 9.44319 75.288 6.83847C75.5706 4.90796 75.5476 2.96488 75.7737 1.03437C75.8742 0.180087 76.27 0.127741 76.8667 0.288966C78.7763 0.806142 80.6607 1.42382 82.585 1.8719C83.3974 2.06035 83.2466 2.72409 83.5481 3.1617C83.1943 4.64413 82.8362 6.12657 82.4991 7.61318C82.4656 7.76603 82.1327 8.09267 82.652 8.09686C82.6729 8.2518 82.6917 8.40675 82.7127 8.56169C82.7588 11.0513 82.1474 13.4801 82.0092 15.955Z" fill="#FF993A"/>
<path d="M83.0811 15.2494C82.4174 12.8624 82.2164 10.3666 81.3746 8.02146C81.7892 7.81417 82.0426 8.16384 82.2938 8.34601C84.8441 10.2158 87.6289 11.7464 90.0787 13.7711C90.8408 14.4014 91.7831 14.8159 92.6311 15.5613C91.0795 15.7205 89.5301 15.8817 87.9786 16.0387C86.8395 16.1539 85.6775 16.1036 84.5677 16.4533C83.4433 16.8093 83.3303 15.9529 83.0811 15.2494Z" fill="white"/>
<path d="M82.7271 7.65713C82.2162 7.55872 82.6014 7.29699 82.6622 7.15252C83.261 5.74965 83.8787 4.35725 84.4922 2.96067C84.9989 1.59549 85.3004 1.45311 86.6007 1.92422C87.8255 2.36811 89.0546 2.80154 90.4931 3.31243C87.8611 4.98331 85.1182 6.01347 82.7271 7.65713Z" fill="white"/>
</svg>
